<svg viewBox="0 0 400 231" xmlns="http://www.w3.org/2000/svg"><g fill-rule="evenodd"><path d="M168 10h1l-1-1v1m34 1h1v-1l-1 1m-15 0c-5 2-5 9 0 10h5c6-4 1-12-5-10m37 0c-6 3-4 11 2 11 6-1 7-9 2-11h-4M31 13l-1 1h-1l-1 1a73 73 0 0 1-1 15v4l-1 4v4c-1 1-1 2 3 4l3 1v1l8 4c3 2 3 2 1 5l-1 1v1l-2 2v1l-1 1v2h2l2-1h2a125 125 0 0 0 13-3 379 379 0 0 1-11 1l-3 1c-2 0-3-1-1-2v-1l1-1v-1l1-1 1-2v-1l2-2-3-2-2-2-2-1h-2v-1l-4-2-1-1-2-1V29l1-5v-4l1-6-1-1m-6 0 1 1v-1h-1m2 1v1-1h1c1 0 0 0 0 0h-1m177-1v2l-1 1v1l-1 1v11l1 2c0 3 6 9 8 9h1l4 1 8-1 2-1h-2c-3 1-12 0-13-2h-1l-4-4c-2-3-4-9-3-13v-2l1-1v-1l1-2-1-1m-37 1v1l-1 1v1l-1 1v1l-1 2v4c1 12 14 20 25 14h-11l-2-1a17 17 0 0 1-10-11 20 20 0 0 1 1-10v-3M64 17l-2 2v1l-2 2v2l-2 2 1 2 4-6 1-2h1v-4l-1 1m-8 3h2-2m0 3h-1 1m-34 6v1-1m0 2v2-2m215 3v-1 1m-80 1c-1 0 0 0 0 0m33 3h1-1m-32 1c-1 0-1 0 0 0m77 1h1-1m-1 2h1v-1l-1 1m-42 5v1l1-1-1-1v1m9 0h1l-1-1v1m1 1h1v-1l-1 1m-25 3h2-2m40 0h1-1m-37 0h1-1M34 58v1h1v-1h-1m287 5h-1l1 12a962 962 0 0 1-3 68v1l-2 2-2 1h3l6-6v-2l1-3 1-2a886 886 0 0 0 0-68v-1h29l1-1-1-1h-33m-71 2v12l1 27a326 326 0 0 0 2 45 54 54 0 0 0 6 14c0 2 4 6 5 8a36 36 0 0 0 14 8l2 1h1l2 1h1l2 1h4a166 166 0 0 0 25 0 54 54 0 0 0 22-9 44 44 0 0 0 6-5v-1l-1 1a31 31 0 0 1-9 6l-4 1-1 1h-3l-2 1h-2l-3 1h-3a118 118 0 0 1-28-1l-2-1h-1l-5-2h-2l-3-2-2-1-2-2a38 38 0 0 1-13-21v-1l-1-2v-3l-1-3v-37l-1-37h-4M32 66v1-1m217 6v1-1m70 0v1-1m-1 2v2-2m-32 10v1l1-1h-1m-150 4v1l1-1h-1m-3 3v1h1v-1h-1m105 1a170 170 0 0 0-12 10 171 171 0 0 1-11 8l-1-1-1-2v-1l-1-1v-1l-2-2a971 971 0 0 1-9-7l-5-1-2-1-15 1c-7 3-13 8-14 13v1l-2 5a362 362 0 0 1 1 0l2-3a24 24 0 0 1 8-8l7-3a35 35 0 0 1 18 1c2 0 7 4 9 6l5 6c0 1 5 2 7 1l4-5 5-5a188 188 0 0 0 8-7l3-3v-1h-2M76 93a26 26 0 0 0-7 2c-3 0-9 5-11 9a21 21 0 0 0-3 6v1l1-1v-1l7-7a18 18 0 0 1 5-2c5-2 12-2 17 0a21 21 0 0 1 7 4 32 32 0 0 1 7 8 24 24 0 0 1 3 5v1c0 2 0 2 9-7a251 251 0 0 1 12-13 127 127 0 0 0-11 10 166 166 0 0 0-8 6l-4-8-7-8a23 23 0 0 0-9-4l-1-1h-7m210 3v1h1l-1-1M21 97h1-1m159 13h-1 2-1m-98 2h3-3m-62 3v3l-1 4a58 58 0 0 0 4 27v2l1 1a127 127 0 0 0 5 9 53 53 0 0 0 36 23h3a79 79 0 0 0 19 0l2-1h2l1-1h2l5-2 2-1 1-1 2-1 1-1a53 53 0 0 0 12-10h-1l-3 3-2 1a202 202 0 0 0-10 5h-1l-2 1h-2l-3 1h-2l-3 1h-4a39 39 0 0 1-15 0l-4-1h-2l-2-1h-3l-3-1-4-2c-1 0 0 0 0 0l-1-1-10-6-8-8-3-4-1-1v-2l-1-2a128 128 0 0 0-3-7l-2-4v-2l-1-3a285 285 0 0 0 0-11l-1-6v-1m68 1v1h1v-1h-1m-75 1v1h1l-1-1m46 2c-1 0-1 0 0 0m118 0v1h1v-1h1-2m-86 1v1h1l-1-1m84 2 1 1v-1h-1m-163 8v2-2m118 2v4-5 1m-119 2 1 2v-1l-1-1m119 3a19 19 0 0 0 1 8l2 8a60 60 0 0 0 8 16 61 61 0 0 0 12 10h1a40 40 0 0 0 10 4c7 3 26 1 29-2h1l4-2 2-2a37 37 0 0 0 15-17v-4l-1 2v1l-1 2-1 1a39 39 0 0 1-19 13l-1 1h-1l-2 1h-2l-3 1h-2a31 31 0 0 1-13 0l-3-1h-2l-2-1h-3l-1-1h-1l-1-1h-2l-1-1c-1 0 0 0 0 0l-1-1c-5-3-10-7-13-13l-5-8a62 62 0 0 1-3-12l-1-2m55 2v4l11 1h12l1-1 3-4v-1h-14l-13 1m31 15v1-2 1m147 1v1l-1 1-1 1v2l-1 1v2l-2 4h-1v1l-1 1v2l-2 4h-1v1l-1 1v3c1 0 1 1 10-17l2-6 1-1-1-1h-1m-7 1h1-1m3 0s0 1 0 0c1 0 1 0 0 0m-344 1h1-1m330 7v1-1m-216 6v1-1m123 2h1-1m-228 1v1-1m106 1c-1 0 0 0 0 0m0 1h1v-1l-1 1m-104 1 1 1v-1h-1m105 0v1h1v-1h-1m82 2v5h24l5-5h-29m44 1v1-1m-120 4 1 1-1-1m5 4h1-1v-1 1m121-1h1c1 0 1 0 0 0h-1m68 3v2a90 90 0 0 1 12 5l2 1h2l4 3a288 288 0 0 0 13 22l1-1v-1l-1-2a278 278 0 0 0-15-23l-1-1h-2l-1-1-3-1-2-1h-1l-1-1h-1l-1-1h-5m65 0h-1l-4 2h-1l-1 1h-1l-3 2h-2l-1 1h-2l-2 2 3-1a26 26 0 0 0 3-1h1l4-2h1l1-1h2l1-1h2l2-2h-2m-351 2h2-2m58-1 1 1-1-1m139 1v1h-1 1v-1m83 3v1l1-1h-1c-1 0 0 0 0 0m-44 0v1h1l-1-1m-123 1h2l-1-1-1 1m4 0h1-1l-1-1 1 1m61 0h2l-1-1-1 1m-142 1h2l-1-1-1 1m302 6h2-2m-44 1h1-1m7 4v1-1m6 13h1-1m17 2h1c1 0 0 0 0 0v-1l-1 1" fill="#fff"/><path d="M177 5v1h-2l-1 1h-1l-1 1v1h-2v1l-1 2v1l-1 1v1l-1 1v1l-1 2 1 8v1l2 4 4 5c4 2 7 2 9 2 3 0 5 0 9-2h2v-1h1a16 16 0 0 0 4-5v-1l1-1V15l-1-1v-1l-3-3h-1V8h-1l-1-1h-1V6h-3l-11-1m37 1h-1l-2 1-1 1h-1l-1 1c1 0 0 0 0 0l-2 2v2l-1 1v1l-1 1v1c-2 2-1 11 1 13v1a19 19 0 0 0 6 6h1l1 1c3 1 9 2 11 1l1-1h2l3-1v-1h1l2-2 2-2v-1l1-1v-1l1-1V17l-1-1v-1l-1-1v-1l-1-1v-1h-1v-1h-1l-3-3h-1l-1-1h-2l-5-1-6 1m14 5c5 2 5 10-1 11l-4-1c-3-2-3-4-2-7v-1l2-2h5m-37 0c7 3 3 13-4 11-3-1-5-6-3-9l2-2h5M31 12l1 1v8l-1 6v7a425 425 0 0 0 26-8l-1-1-1-1h-2l-1-1h-1v-1l-1-1h-2v-1h-2l-1-1h-1v-1l-1-1h-1l-1-1h-2v-1h-1l-1-1h-1l-1-1h-1l-1-1h-2m131 1 1 1v-1h-1m-95 5h-1l-1 1v1l-1 1v2h-1v2h-1v2l6-1h2v-1l-1-1v-2l-1-2v-1l-1-1m90 7v1-1s0-1 0 0M21 41v1-1m0 5v1-1s0-1 0 0m1 3v-1 1m56 13-2 1h-4l-5 1h-3l-2 1h-2l-1 1h-2l-1 1h-2l-1 1h-1l-1 1h-2l-1 1h-1l-1 1h-1l-4 4h-1l-1 1h-1v1l-4 4h-1v1h-1v1l-1 1v1l-1 1v1l-1 1-1 2-2 2v2l-1 2h-1v3l-1 2v1l-1 1v3l-1 3v7c0 1 1 2 2 1h21a34 34 0 0 1 9 0l1-1v-5l1-2v-1l1-1v-2l1-1 1-2h1c0-2 8-8 9-8h1c3-1 12-2 14-1l2 1 4 1 1 1c1 0 2 0 3 2h1a34 34 0 0 1 10 15h1l3-3h1l1-1a49 49 0 0 1 4-4 43 43 0 0 1 5-4h1a33 33 0 0 0 3-3l5-5h1l1-1-1-1v-2h-1v-1h-1v-1l-1-1v-1h-1v-1l-1-2-1-1h-1v-1h-1v-1h-1v-1h-1v-1l-1-1h-1v-1h-2v-1h-1v-1h-1l-2-2h-1l-1-1h-1l-1-1h-2l-1-1h-1l-1-1h-1l-2-1h-1l-2-1h-1l-3-1h-2l-4-1h-5l-1-1h-2m107 1h-5l-4 1h-3l-2 1h-2l-2 1h-1l-2 1h-1l-1 1h-1l-1 1h-2l-1 1h-1l-1 1h-1l-1 1h-1v1h-1v1h-1v1h-2v1h-1v1h-1v1h-1v1h-1v1h-1v1h-1c-1 0 0 0 0 0v1h-1l-1 1v2h-1v1l-1 1v1h-1l-1 1v2l-1 1-1 1v2l-1 2v1l-1 2v1l-1 2v2l-1 2v4l-1 4 1 2h5a27 27 0 0 0 5 0 126 126 0 0 1 14 0h5c1 0 3 0 3-2v-1l1-2v-2l1-1v-1l1-1v-1l1-2 1-1v-1l3-3a25 25 0 0 1 12-6 47 47 0 0 1 15 1h3c2 0 12 8 12 10v1l2 3c0 2 1 2 2 1a68 68 0 0 1 7-5l1-1a116 116 0 0 1 11-9l2-1c1-2 2-2 3-2v-2l-1-2-1-1v-1l-1-1v-1h-1v-1h-1v-1h-1l-1-2-2-2h-1l-3-3h-1l-2-2h-1l-3-3h-2v-1h-3l-2-1-1-1h-2l-2-1h-2l-2-1h-2l-1-1h-16m69 1v1l1 24 1 28h22a180 180 0 0 0 7 0V64h-31m101 0v1l-15 1h-15v18l1 31v2h30v-7a45 45 0 0 1 1-9l-1-4 1-5-1-1h1v-1l-1-13a338 338 0 0 0-1-13m-116 40v1h1l-1-1m-55 6v1l-1 7v2l1-1 1-2h56v-3h-4l-4-1-13 1-8-1-6-1h-5l-6-1h-7l-4-1m-9 24v1h1l-1-1m67 10v1l1-1h-1m0 9v1-1c-1 0 0 0 0 0m124 3h-1v1l-1 1-1 2v2h-1a81 81 0 0 0-4 8 176 176 0 0 0-4 8c0 1 0 2-2 2l-3 1h-2l-1 1h-2l-1 1h-1l-1 1h-1l-1 1h-2v1h58l-2-1h-1l-1-1h-1l-1-1h-1l-1-1h-2l-1-1-2-1h-1l-1-1-2-1v-1l-1-1v-1l-2-2v-2l-1-1v-1l-1-1v-1h-1v-1l-1-1v-1l-2-2v-2l-1-1v-1l-1-1v-1h-1m-124 0v2l1-1-1-1m154 30v1h1l-1-1m2 1v1h1l-1-1m-179 7v1l1-1h-1m-3 1h1l-1-1v1m115 4 1 1v-1h-1" fill="#7222c3"/><path d="m225 10-1 1h-1l-2 2v1c-2 3 1 8 3 8v-1c-5-2-4-8 0-10 3-1 6 0 7 3 0-2-3-4-6-4m-38 1h-1l-2 3c3-7 13-2 10 4-2 6-10 5-10-2l-1-1v1c0 7 9 8 11 3 2-4-1-9-5-9l-2 1m-18 0-2 2v1h-1 1v3l-1 1v3-1l1-2v-2l1-1v-1l1-1v-2m36 1-2 2v1l-1 1v1l-1 1v11l1 1v1l2 3v1a26 26 0 0 0 5 4l2 2h13l1-1h1l1-1h1l1-1h1v-2 1l-3 1h-2l-1 1h-2 5-1l-1 1h-2l-1 1h-9a17 17 0 0 1-4-2l-7-8V18l1-2v-1h1v2l-1 1v2a17 17 0 0 0 14 19 27 27 0 0 1-6-2l-1-1a19 19 0 0 1-5-6c-2-2-3-11-1-13v-1l1-1v-1l1-1-1-1M32 14l-1 6v4l-1 4v5l-1 4 1 5 2 1a48 48 0 0 0 6 4 60 60 0 0 0 6 3h1c1 0 2 3 1 4h-1a95 95 0 0 0 9-2 910 910 0 0 0 23-6l-1-2v-1l-1-2v-3h-1v-2l-1-1v-2l-1-1v-2l-1-1v-2h-9v-2h1v-2h1v-2l1-1v-1l2-2-1-1v1l-1 2v1h-1l-1 2-4 6-1-2 1-1v-1c1 0 1 0 0 0v1h-1v3l-2 1a118 118 0 0 0-13 3h-3l-5 1-4 1v-7l1-6v-8 1m173 0h-1v-1l1 1m-39 1v1-1c0-1 1 0 0 0m65 2c0 3-2 4-5 5h-1c2 0 5-1 6-3l1-4-1 2m-66 0v1l-1 1 1-1v-2 1M62 19h-1 1v-1 1m102 0v10l1 1v1l1 1v2l5 5h1l1 1h1l1 1h12l2-1 1-1 4-3h-1l-1 1h-1l-6 2h-1 6l-4 1-1 1h-9l-4-3-5-4-1-2-1-1v-1l-1-2v-7l1-2h-1M61 20v1l-1 1v1-1l1-1v-1m105 3v-1 1M27 22v5l1-3-1-2m-4 2v1-1s0-1 0 0m143 1v2l1 1v-1l-1-1v-1m1 4c0 2 6 9 9 9l2 1h2l-7-2a21 21 0 0 1-6-8M26 31v6-2l1-3-1-1m-4 1v1s0 1 0 0v-1m134 1h1-1m35 5h-1 1m37 0h-1 1M25 40v4l1 1h1l1 1h1l2 2h1l1 1c1 1 0 0 0 0l1 1h2l2 2h1l1 1h1l1 1-1 1v1l-1 1v1h-1v1l-1 1v2h-1v1l-1 1v1l1 1 2-1h-1l-1 1v-3l1-1v-1l1-1v-1l3-3v-3l-3-1a36 36 0 0 1-3-2l-4-2-1-1-3-1c-3-2-3-2-2-5 0-1 0-2-1-1m157 0h1v-1c-1 0-2 0-1 1m37 0h1c1-1 0-1-1-1v1m16 0v-1 1M21 43v2c0 1 1 1 0 0v-2m56 14-5 1-4 1a101 101 0 0 1-12 2l-6 2a53 53 0 0 1-8 1l-2 1h3l2-1h3l2-1h2l2-1h3l2-1h2l2-1h3l2-1h2l3-1 4-1h1v-1l-1 1m278 7-1 1h-14l-15 1a2122 2122 0 0 0-1 71l-1 4-1 1-3 4-2 3a285 285 0 0 0 36-1v-2c1-2 1-1 1 1v1l-1 1v2l-2 4v2l-1 1-1 2-1 1v1a40 40 0 0 1-19 16h-1v1h-1l-2 1-5 1a233 233 0 0 0-9 2 204 204 0 0 1-27-2h-1l-2-1h-3l-1-1-7-3a37 37 0 0 1-14-18 19 19 0 0 1-2-3v-2l-1-2v-2l-1-1v-3l-1-3v-35a490 490 0 0 0 0 32v5l1 2v3l1 1v3l1 2v1l1 2v1l1 1v1l2 2v1l1 1v1h1v1l2 2 1 2h1c1 0 0 0 0 0v1l2 1 2 2h1l2 2h1l1 1h1l1 1h1l1 1h2l1 1h2l1 1h2l2 1h8a55 55 0 0 0 16 0h4l2-1 3-1h3l1-1h2l1-1h1l1-1h1l1-1h2l1-1 2-1 1-1a72 72 0 0 0 5-4l3-3 1-2 1-1v-1h1v-1l1-1v-1l1-1v-1h1v-2l1-1v-1l1-1v-2l1-3 1-2v-2l1-4v-10a46 46 0 0 1 1-8l-1-2v-3h-30v-2l-1-31V66h15l15-1v-1m-101 2a1225 1225 0 0 1 2 75v2l1 2v2l1 1v1h15a400 400 0 0 0 21-2v-1h-1v-1h-1l-1-1h-1v-1l-2-2v-2l-1-3v-2l-1-1v-2l-1-7c0-7 0-8-1-7h-1a180 180 0 0 1-19 0h-8l-1-28a253 253 0 0 0-1-23m66 36a272 272 0 0 1 1 31 904 904 0 0 0-1-31m-3-26v1-1c1 0 1 0 0 0m-79 15a32 32 0 0 0-3 3l-3 3a3768 3768 0 0 0-16 12c-1 1-2 1-2-1l-2-3v-1c0-2-10-10-12-10h-3l-2-1h-13l-2 1a25 25 0 0 0-12 7l-1 1v1l-1 1-1 2v1l-1 1v1l-1 1v2l-1 2v1c0 2-2 2-3 2h-8a126 126 0 0 0-18 0h-3v-1a127 127 0 0 0 1 31v2l1 2v2l1 1v1l1 1v2l1 1v1h1v2l1 1a293 293 0 0 0 5 8 72 72 0 0 0 10 8h1v1h1l2 1h1v1h2l1 1h1l2 1h4a67 67 0 0 0 22 0l2-1h1l1-1h1l1-1h1l1-1h1v-1h1l1-1h1l3-3h1l1-1a208 208 0 0 1 7-8v-1h1v-1 2l-1 4v14a191 191 0 0 0 26-1v-1l3-3v-1 1l-3 3-1 1-12 1h-12l-1-1v-11l1-3v-6 1l-1 2-2 2a48 48 0 0 1-13 11 44 44 0 0 1-12 5h-2a83 83 0 0 1-18 0l-2-1h-2l-2-1c-1 0 0 0 0 0l-12-6a78 78 0 0 1-9-11l-1-1-4-9a76 76 0 0 1-4-26 37 37 0 0 0 1 9l1 2v3l1 2v1l1 1v1l1 1h44a34 34 0 0 0 18 1h2l1-1h41v2l1 2v3-2c1 0 1 0 0 0v-2c1 0 1 0 0 0v-3l1-1-1-1v-6l-1-2v-22h-56c-1-1-2 2-1 4v11a315 315 0 0 1 0 12h11c12 0 12 0 11 1a138 138 0 0 0-4 3 79 79 0 0 0-4 1h-1a40 40 0 0 1-17 0l-2-1h-1v-1h-1l-1-1h-1v-1h-1l-2-1v-1l-1-1v-1h-1v-1h-1l-1-1v-2l-1-1-1-2v-1l-1-2v-15l1-2v-1l1-1v-1l1-1v-1l3-3v-1h1v-1h1l1-1h1l1-1h1l1-1h1l2-1h2l4-1 8 1h3l1 1h2l1 1h1l1 1h1l2 2a25 25 0 0 1 6 8l3 1 6-1 2-2 2-3 2-2 4-3v-1l3-3v-1h1v-1h1l1-1h-1v1l-3 2a314 314 0 0 0-14 14c-2 1-6 0-6-1l-8-9h-1a23 23 0 0 0-6-3l-2-1h-2a35 35 0 0 0-18 2l-8 6-2 4v1l-2 3v2l-1 3v1-5a362 362 0 0 0 2-9c1-5 7-10 14-13a36 36 0 0 1 17 0 16 16 0 0 1 5 2 22 22 0 0 1 9 6l2 2v1l1 1v1l1 2 1 1 6-4a57 57 0 0 1 5-4 855 855 0 0 1 12-11M74 93a22 22 0 0 0-6 1c-1 0-9 6-9 8h-1l-1 2-1 1v2l-1 1v1l-1 2v3h1v-1l1-1v-1l1-1v-1l7-7a96 96 0 0 0 4-1l1-1a34 34 0 0 1 16 1h2l1 1h1l1 1h1v1h1l2 3h1l1 1v1h1l1 2 1 1v2h1v2l1 1v1l1 1c0 2 1 2 4-2a28 28 0 0 0 3-3 111 111 0 0 0 11-11l1-1a28 28 0 0 1 4-3l1-1h1l-3 1v1l-12 11-9 8c-1 1 0 1-1-2a36 36 0 0 0-4-6 32 32 0 0 0-11-10l-4-2h-2a33 33 0 0 0-11 1c-6 1-10 4-13 8a43 43 0 0 1-2 3v1-3l3-5c2-4 8-9 11-9l1-1a28 28 0 0 1 17 1l6 3 7 8 4 8 4-3a166 166 0 0 1 15-13 88 88 0 0 0 6-5h1-2l-5 5a34 34 0 0 0-3 3h-1a133 133 0 0 1-12 10l-2 2h-1v-1l-1-1v-1l-1-1v-1l-1-1v-1l-2-3a34 34 0 0 0-9-7l-1-1-4-1-2-1h-9m-53 16-1 2v2l-1 3v3a78 78 0 0 0 2 26v1l1 2v1l1 1v1l1 2v1h1v2l1 1 2 3v1l2 2 2 3 1 1a43 43 0 0 0 14 11h1v1h1l1 1h1l1 1h2l1 1h1l2 1h2l1 1h5a91 91 0 0 0 24 0l2-1h1l2-1h1l1-1h1l1-1h1l1-1h1l1-1h1l1-1h1l2-2h1a1004 1004 0 0 0 2-2 91 91 0 0 0 17-20l1-1v-1l-2-4a26 26 0 0 1-3-3h-1l-1-1v-1l-1-1h-2v-1l-2-2h-1v-1h-1v-1h-1v-1h-1l-1-1h-1v-1l-3-3-1-2h-3l-1 2-1 1v1l-1 1v1l-1 1-1 2v1h-1v1h-1v1l-1 1a59 59 0 0 0-2 2h-1v1h-1v1h-1l-2 1-1 1a6 6 0 0 0-1 0v1l20 1h20v5l-2 4h-1l-3 4c-5 6-14 14-19 16a40 40 0 0 1-6 3l-10 3-16 1a76 76 0 0 1-21-6l-2-1-7-5a53 53 0 0 1-18-26 60 60 0 0 1-3-26l1-3v-4l1 8v6a58 58 0 0 0 6 20l1 1a742 742 0 0 0 39-3h-1l-1-1h-1v-1h-2v-1l-1-1-1-1v-1l-1-1-1-2-1-1v-1l-1-1v-2l-1-1v-2l-1-3v-4l-1-5H23c-1 1-2 0-2-1l1-3-1-4m336 1s0-1 0 0m-274 2h1-1m-69 1v1l1-1h-1m100 8v1-1c1 0 1 0 0 0m62 0v1l1-1h-1m-55 1v1-1c1 0 0 0 0 0m54 3 1 1v-1h-1m0 5v1h1l-1-1m0 2 1 1-1-1m181 4v1l-1-1h1m-181 1v2l1-2h-1m37 1c1 0 1 1-3 5v1h-12l-12-1v-5h27m144 3h1-1m-38 0v1h1v-1h-1m37 2h-1l1-1v1m-38 0 1 1v-1h-1m-1 2v1l1-1h-1m-231 3c1 1 1 1 0 0h1v1l-1-1m211 0h1-1m18 0s0 1 0 0m1 0v1-1m-240 1h5-5m290 7-1 1-2 6c-9 18-9 17-10 17v-3l1-1v-1l1-1v-1l1-1v-1l1-2a74 74 0 0 1 4-7v-1l1-2v-1l1-1-1 1v1l-1 1v1l-1 1v1l-1 1v1l-1 1v1l-1 1v2h-1v2h-1v2h-1v1l-1 1v1l-1 1v1l-1 1v1c1 0 4-1 4-3l2-2a176 176 0 0 1 9-20v-1 1m-123 1v1-1m0 2c1 0 0 0 0 0m0 4v1l1-1h-1m0 2v1h1l-1-1c-1 0 0 0 0 0m0 2v1l1-1h-1m0 8v1l1-1h-1c-1 0 0 0 0 0m0 6v2l1-2-1-1v1m0 4h1l-1-1v1m95 0v1h-1l-2 1h-1l-2 2h-1l-1 1 2 2h2l1 1h1l1 1h1l2 1h1l1 1h1l2 1h1v1h1l2 1h1l2 2v2l1 1v1l2 2v1l1 1v1l1 1v1l1 1v1l1 1v2l1 1v1l1 1v1h1v2h3v-1h1-3a94 94 0 0 0-6-12l-1-2a26 26 0 0 0-2-3v-1l-2-3-1-2-3-2h-2l-1-1h-1l-1-1h-3v-1l-5-1-1-1h-1l-1-1c-1 0-2 0-1-1l1-2 3 1h2l1 1 4 1 1 1h1l1 1h2l1 1 5 2 2 2a100 100 0 0 0 6 11h5c5 0 5 0 5 2l-1 3v1-1l1-1v-1l1-1v-1l2-2v-1l1-1v-1l1-1v-2l1-1v-1l2-2h1l2-1h1l1-1h1l1-1h1l1-1h2l1-1h2l1-1c1 0 0-1 0 0h-2l-1 1a27 27 0 0 1-4 1 104 104 0 0 1-7 3h-1l2-2h1l1-1 3-1h2l2-1a42 42 0 0 0 5-2l1-1h2c1 0 2 0 1-1v-1h-2l-1-1h-57l-1-1m-95 4v1-1h1-1m153 2v1c-1 0-1 0 0 0l1-1h-1m-48 16v1-1m21 9v1-1m-1 2v1l1-1h-1m-1 2v1l1-1h-1" fill="#aa6795"/><path d="M28 19v2a53 53 0 0 0 0-2m137 0s0 1 0 0m37 0c-1 1-1 1 0 0m-38 2v6-3a28 28 0 0 1 1-4l-1 1M60 23l1-1-1 1m141 1v1-2 1M27 25v2-1l1-1v-1l-1 1m32-1v1l1-1h-1m-1 2h1-1m143 0v1-1m-37 1v1h1l-1-1m37 1 1 2v-1l-1-1M27 30v1-2 1m138 0v1h1l-1-1m37 1 4 5 2 2-2-2-3-5h-1m-36 1 1 1-1-1M26 33v2l1-1v-1h-1m141 0 5 5-2-1-3-3v-1M26 38v1-1m146 1h1c1 0 1 0 0 0l-1-1v1m37 0h1-1m-35 1h1l-1-1v1M29 40v1-1m158 0h1-1M26 41v3-3m151 0h3-3m7 0c-1 0-1 0 0 0h1-1m37 0c-1 0-1 0 0 0h1-1m-6 0h1-1M27 45v-1 1m7 0h1l-1-1v1m2 1h2l1 1 2 1 2 2c3 2 3 1 2 3l-1 1v1l-1 2-1 1v1l-1 1v1c-2 1-1 2 1 2l3-1h2l2-1a97 97 0 0 0 14-3h3a268 268 0 0 1 12-2h1v-5l-1-2-1-1h-4a808 808 0 0 1-27 6c1-1 0-4-1-4h-1l-1-1-5-2-2-1m-6 0 1 1a860 860 0 0 1-1-1m5 3v1-1h-1 1m3 2 1 1-1-1m2 1v1l2 1v1-2l-2-1m1 4v1-1l1-1-1 1m32 2s-1 0 0 0l2-1-2 1m-2 0h1-1m-3 1s-1 0 0 0h1l1-1-2 1m-2 0h1-1m-2 1c-1 0-1 0 0 0l1-1-1 1m-3 0h1-1m-2 1c-1 0-1 0 0 0h1-1m-2 0h1-1m-2 0-1 1 2-1h-1m-3 1h1-1m-1 0-2 1c-1 0-1 0 0 0l2-1m-5 1-1 1 1-1c2 0 1 0 0 0m-4 1c-1 1-1 1 0 0h1-1m-6 1h2-2m284 10v1h1l-1-1m-70 2v24l1 23v-23a346 346 0 0 0-1-24m71 2v1-2 1m-88 20 1-1-1 1M71 99s-1 0 0 0h2-2m10 0h1-2 1m101 0h2-2m12 0h1c1 0 1 0 0 0h-1m-126 1h-1 2-1m17 0h1-1c-1 0 0 0 0 0m94 0h-1 2-1m19 0h1-1c-1 0-1 0 0 0m33 1-1 1 1-1c2-2 2-2 0 0m-110 0-1 1 2-1a104 104 0 0 1-1 0m55 0h1-1m25 0-1-1 1 1m-138 1-2 1v1l1-1a46 46 0 0 1 1-1m139 0h2v1h1l-2-1h-1m-113-1 2 2-2-2m139 3-2 2 4-4-2 2m-57 0-1 1 1-1c1-1 1-1 0 0m35 0 2 1-1-1h-1m-114 0 3 2 2 2-4-4h-1m-32 1-2 2 1-2h1m109 1-1 1 2-2-1 1m41 2a48 48 0 0 1 0-1l-1-1 1 2m-152-1-2 2v1l-1 1 2-2 1-2m165 3a46 46 0 0 1 0-1l2-2-2 3m-56-2 1-1-1 1m-70 1 1 1v-1h-1m69 2v1-1m-68 0 1 1v-1h-1m12 2h-1 1l1-1-1 1m54 1 1-1-1 1m-64 0 1 1-1-1m-80 1s0 1 0 0v-1 1m144 1h-1v2l1-1v-1m-62 1v1-1c-1 0-1 0 0 0m3 0v1c-1 0 0 0 0 0l1-1h-1m-85 2s0 1 0 0v-1 1m84-1-2 1h1l1-1m59 1v1-1m-144 2v13-1a58 58 0 0 1 0-12m232 7v1-3 2m-230 0s0 1 0 0v-1 1m109 2-1 3 1-5v2m-109 0v1-1m304 2v2a23 23 0 0 1-2 6v1l-6 6h-1l-1 1h-2c-1 0 0 0 0 0 0 1 1 1-3 1h-10l-4-1v1l-1-1-4 1h-33v-2l-2-4v-2l-1-3v-2 3l1 3v3l1 2v1l1 2 2 7a37 37 0 0 0 12 14l2 1 3 2h2l5 2h1l2 1h2l3 1h3a118 118 0 0 0 28-1l2-1h3l1-1a18 18 0 0 0 5-2l2-1 6-4 1-1v1a23 23 0 0 0 5-7l1-1 1-2 1-1v-2l1-2 1-2v-2l1-1v-1c0-2 0-3-1-1v2l-1 1a210 210 0 0 1-35 0l5-7 1-1 1-4 1-2v-4 1m-195 1v3-1h-1l1 2v3-1c0-3 1-3 1 1l1 1v2l2 8a45 45 0 0 0 19 22l1 1h2l1 1h1l1 1h3l2 1h2l3 1h15l3-1h2l2-1h1l1-1h2l1-1h2l3-3h2a39 39 0 0 0 11-12v-1l1-2v4l-1 2v7l-1 3v7c0-2-1-2 14-2l14 1h1v-11a181 181 0 0 0-1-18h-20a421 421 0 0 0-42 0h-44l-1-1v-1l-1-1v-1l-1-2v-3l-1-2v-2l-1-3v-2 2m125 0v1-2 1m66 0-1 2 1-3v1m-70 0v1-2 1m-229 1v4l2 4 1 4a128 128 0 0 1 4 8l3 4 8 8a43 43 0 0 0 13 8l2 1 3 1h3l2 1h2l4 1h19l3-1h2l3-1h2l2-1h1l1-1h2l2-2 3-1a202 202 0 0 1 7-4l5-5a40 40 0 0 1 4-4l2-4v-5h-20c-21 0-20 0-20-1v-1 1h-1v1-1h-2c1 0 1 1-1 1h-3c1 0 1 0 0 0h-1 1-6l-2-1h-1v1l-1-1a742 742 0 0 1-44-2l-1-1v-2l-1-1v-1l-1-2v-1l-1-2v-2m-2 1v1-1m300 1v1-1m35 0 1 1v-1 1c0-1 0-2-1-1m-335 1 1 4a15 15 0 0 0-1-4m165 1v1l13-1h14v1l-3 4-1 1h-12a113 113 0 0 1 1 0h12v-1c3-3 4-5 3-5h-27m66 1 1 4v-1l-1-2v-1m69 0-1 1 1-1m-299 3v2-2m334 0-1 1h1v-1m-225 0 1 2s0 1 0 0v-1l-1-1m122 3v1-1m-230 1v1s0 1 0 0v-1m230 1v1-1s0-1 0 0m-121 0 1 1v1-2h-1m185 2h-1v-1l1 1m-293 0v1-1m230 1v2h1l-1-2v-1 1m-121 0 1 2v-1l-1-1m84 4v1-2 1m-83 0 1 1-1-1c-1 0 0-1 0 0m121 0c1 1 1 1 0 0m-120 2 2 4-2-4v-1 1m121 0 1 3-1-3m-119 4v1h1-1v-1m121 0v1l1 1-1-1c-1 0 0 0 0 0v-1m103 2v1-2 1m-223 0v1h1l-1-1m121 0 1 1-1-1m-45 3 1-1-1 1m46-1v1a36 36 0 0 0 4 5 78 78 0 0 1-4-6m-227 1 1 1-2-2 1 1m313 0v-1 1m13 0v1-1m-218 2 2 2-2-2m-105 2 1 1-1-1-1-2 1 2m307 0c-1 1 0 0 0 0l1-1-1 1m-3 2-1 2 1-1a152 152 0 0 1 0-1m16 0v1-1h1-1m-90 1a35 35 0 0 0 8 5 41 41 0 0 1-8-5m-226 0 2 2h1-1l-3-3 1 1m71 0-1 1h1l2-1h-2m34 0 1 1c0 1 1 0 0 0l-1-1m61 2c-1 1-1 1 0 0l2-2-2 2m131 0h-1l-1 1h1l1-1c1-1 0-1 0 0m-189 1 6 4-2-1a43 43 0 0 1-4-3m206 0v1-1h1v-1l-1 1m-311-1 2 2-2-2m160 2-2 2-2 1 1-1a156 156 0 0 1 3-2m131 0 1-1-1 1m19 1h1v-1l-1 1m-307 0h1l-1-1v1m60-1-2 2-2 1 2-1 2-2m247 2-1 1h1v-1m-77 0 1 1v-1h-1m-122 1h1-1m88 0-1 1h1v-1h1-1m84 1h-1 1v-1 1m-44 0c0 1 1 1 0 0h-1 1m41 0-1 1 1-1c1 0 1 0 0 0m-109 1v2l1 1h11l11-1h-11c-12 0-12 0-12-2v-1 1m71 0 1 1v-1h-1m34 0-1 1 2-1h-1m-3 1h1-1m-256 0v1l-1-1h1m101 0 1 1v-1h-1m31 0v1l1-1h-1m98 0 1 1v-1h-1m24 0h-1v1l2-1h-1m-75 1h-1v1l1-1s0-1 0 0m54 0h2-2m16 0h2-2m-246 0h1-1c-1 0 0 0 0 0m27 0-1 1 1-1c1 0 1 0 0 0m74 0 1 1-1-1m25 0v1l1-1h-1m-23 1h1-1m-98 0h1-2 1m17 0h-1 2-1m84 0h2-2m15 0c-1 0-1 0 0 0h1-1m-112 1h2-2m9 0h2-2m91 0h2-2m8 0h2-2m151 5c-1 0 0 2 1 1l-1-1s0-1 0 0m2 2h1l-1-1v1m61 0c-1 0-1 0 0 0h2l-1-1-1 1m-56 2h1l-2-1 1 1m50 0s-1 0 0 0h1v-1l-1 1m-2 1h1-1m-3 1h1l1-1-2 1m-38 0v1-1c-1 0-1 0 0 0m9 1 1 3 2 3a28 28 0 0 1 1 2l1 1v1a39 39 0 0 1 2 4l1 1 1 2a278 278 0 0 1 4 6l1-1v-1l1-1v-2l1-1 1-4-5-1h-5v-1l-1-1v-1l-1-2a74 74 0 0 0-5-7m28-1-1 1 1-1c1 0 0 0 0 0m-3 1h1-1v-1 1m-32 0 1 1v-1h-1m2 1 1 1v-1h-1m2 1 1 1-1-1m2 5h1v2h1l-2-2m2 3 1 3-1-3m5 9v1l1 1-1-1v-1m1 2v1l1 1-1-1v-1" fill="#efd686"/><path d="M209 8h1V7l-1 1m-38 1h-3v1h-1l-2 1-2 2v1l-2 1v1l-2 2-2 4v4l-1 1v4l1 1v2l1 5h1v2l1 1 1 2 1 1 3 2c1 2 2 2 3 1l2 2h1l2 1h11l2-1h2l-1-1h1l2-1h1l1-1v-1h1l3-3 2 1v1l1 1h2l1 1h1v1l2 1h2l3 2h2a14 14 0 0 0 6 0h4l1-1h1l1-1 2-1 3-2 2-1v-1l2-2v-1h1v-2l1-1 1-2v-3 1h1v-3h-1v-1l1-1v-3h-1v2l-1 1v1l-1 1v1l-3 3-2 3h-1l-1 1h-1l-1 1h-1l-1 1h-13l-2-2h-1a26 26 0 0 1-4-5l-2-3v-1l-1-1V18l1-1v-1l2-2v-1l4-4h-3l-2 1c-1 0 0 0 0 0v1h-1v1l-2 1v1-1l-1 1v3a27 27 0 0 1 0 12l-1 1v1l-1 1v1a79 79 0 0 1-8 7s-1 1-2 1h-12l-1-1h-1l-1-1h-1l-5-5v-2l-1-1v-1l-1-1V18l2-2v-2h1v-1l1-1h1v-2l1-1h2-1M28 14v1l1-1h1l1-1-3 1m-3 0s0 1 0 0v2h-1l-1 2v7l-1 1a88 88 0 0 1-1 15 36 36 0 0 0 0 5l1 2v1s0 1 0 0v2h3l1 2h1l1 1h1l3 2a64 64 0 0 0 3 2v1h-1v1a353 353 0 0 1-1 10l3 2h7l1-1h1l2-1h1l1-1h2l1-1h1l1-1h2l1-1h2l1-1h2l2-1h3l5-1h8v-3l-1-3v-2 1h-1v1h-1l-4 1-3 1h-2l-2 1h-3l-2 1h-2l-2 1h-3l-2 1h-2l-2 1h-3l-2 1h-2l-2 1-4-1h1v-1l1-1v-1h1v-2l1-1v-1h1v-1l1-1v-3h-1l-1-1h-1l-1-1c-1-1 0 0 0 0l-1-1h-2l-2-2h-1l-2-2h-1l-1-1h-1l-1-1v-5l1-4v-4l1-4v-5l1-4-1-4v1s-1 0 0 0l-1-1h-1m34 5-1 1h-1l-1 3h-1v2h1l1 1h1v-1h1v-2l2-2v-2h1l-1-1h-1l-1 1m3-1h1-1m6 2v1-1m3 8v1h1l-1-1m1 3v1-1m2 6v1-1m245 35v1l-1 1v2h-1v1c-1-1-1 2-1 33a355 355 0 0 1 2 33v-1l1-1v-1l1-2v-33a182 182 0 0 0-1-33m-71 1-1 1v2l-1 3v16a4 4 0 0 0 0 3v29a85 85 0 0 1 0 15v7l1 3v4l1 1v4h1v2l1 2v1h1l-1 1c-1 0 0 0 0 0v1h1l1 2-1 1 1 1h1v2l1 1 1 2c1 0 1 0 0 0v1h1l2 2c-1 0-1 0 0 0l1 1v2l2 1 1 1h1l1 1h1l2 2 2 1 2 2h2l1 1 2 1h1l3 1h2l3 1h2l2 1h6l1 1h9l1-1h9l2-1h2l2-1h5l-1 1v1l1 1h1l1 1h1l2 1h1l1 1h1v1h1l2 1h2l1 1h1l3 1 2 2 1 1v3l3 3v3l1 1h1v2h1v2l1 1 1 2v2l2 2 1-1 1 1v1h4v-1h2l1-1 2-4 1-1v-2h1l2-3 1-1c-1-1 0-3 1-3v-1l1-1v-2l1-1v-1h1l2-3h1l1-1h2l1-1h1l1-1h1l3-1h1l1-1h1l1-1h1c1 1 1 1 1-1l1-2v-1l1-1v-1l-1-1v-1l-2 2h-2l-1 1h-2l-1 1h-2l-1 1h-1l-1 1h-1l-1 1h-1l-2 1h-1l-2 2v1l-1 1v2l-1 1v1l-1 1v1l-2 2v1l-1 1v1l-1 1v2l-1 1v1l-1 1v1l-2 2h-1v1h-3v-2h-1v-1l-1-1v-1l-1-1v-2l-1-1v-1l-1-1v-1l-1-1v-1l-1-1v-1l-2-2v-1l-1-1v-2l-2-2h-1l-2-1h-1v-1h-2l-1-1h-1l-1-1h-1l-2-1h-1l-1-1h-1l-1-1h-2l-2-2 1-1h1l2-2h1l1-1h1l2-1h1l1-1h1l1-1h1l1-1h2l1-1h2l2-2v-1l1-1v-1l1-1v-1h1v-2h1v-2h1v-2l1-1v-1l1-1v-1l1-1v-1l1-1v-1l1-1v-1l2-2h-4l-2 1h-1l1-7v-9h-1s0-1 0 0c1 1 1-1 1-9v-10l-1 8v10l-1 4v2l-1 2-1 3v2l-1 1v1l-1 1v2h-1v1l-1 1v1l-1 1v1h-1v1l-1 1-1 2-6 6h-1a72 72 0 0 1-5 4h-2l-1 1h-1l-1 1h-1l-1 1h-2l-1 1h-3l-3 1-2 1h-4l-4 1a55 55 0 0 1-16-1h-4l-2-1h-2l-1-1h-2l-1-1h-2l-1-1h-1l-1-1h-1l-1-1h-1l-2-2h-1l-2-2-2-1v-1h-1l-1-2-2-2v-1h-1v-1l-1-1v-1l-1-1-1-1v-1l-1-1v-1l-1-2v-1l-1-2v-3l-1-1v-3l-1-2v-5l-1-4V73h-2m108 2h1v-1l-1 1m-71 1h1l-1-1v1m0 1v27c0 29 0 27 1 27v-6h1l-1-1v-2c1 0 1 0 0 0v-9c1 0 1 0 0 0v-2l1-2-1-1v-1l1-1h-1V82l1-1h-1v-2c1 0 0 0 0 0v-2h-1m72 0v13-13M29 87l-1 1h1l1-1h-1m108 0v1h1v-1h-1m-2 1v1h1l-1-1M27 90h-1v1l-1 1-1 2h-1l-1 3-3 3v2l-1 2-2 3v2l-1 1v2l-1 2v1l-1 2 1 1h-1v3a40 40 0 0 0-1 11v10h1l-1 1v2l1 1a7294 7294 0 0 0 3 12l1 2v1l1 2h1v3h1v1l1 1v1l1 2h1v1l1 1v1l2 1v1h1v1l3 3h1l5 5h1l2 1 2 2h1l1 1h1l2 1 1 1h2l1 1h1l1 1h1l1 1h2c1 0 0 0 0 0h1l1 1h6l3 1h14v-1l2 1h3v-1h6v-1h2l1-1 3-1h1l3-1h1v-1h1l4-2 1-1 3-2 2-1 2-2 2-1v-2l1 1 3-3h1v-1c0-2 3-4 3-4l1-1v-1h2v2l1 1v1h1v1l1 1v1l2 1 1 1v2l1 1v1h1l2 2h2l1 1v1h1l2 2h1l1 1h1l1 1h1l1 1h1l1 1h2l1 1h6c-1 1 1 1 2 1l2 1a54 54 0 0 0 15 0h1v-1l1 1 1-1h2l1-1h1l2-1h2l2-2h2c1 0 0 0 0 0l2-2h1l2-2h3v3l1 1v1h1l3 3h2l2-1 1 1h9v-1l2 1h1l1-1 2 1h1v-1 1h1l2-1 1 1h4l2-1 1-2v-1l1 1v-1h1l-1-1v-3l1-1-1-1v-1l1-1h-1v-3l1-1h-2v1l-2 2v1l-1 1h-25a31 31 0 0 1 0-14l1-4v-2 1h-1v1l-1 1-1 2-3 3a208 208 0 0 0-4 3l-3 3h-1l-1 1h-1v1h-1l-1 1h-1l-1 1h-1l-1 1h-1l-2 1h-3a67 67 0 0 1-23 0l-2-1h-1l-1-1h-2v-1h-1l-2-1h-1v-1h-1l-1-1h-1l-2-2a72 72 0 0 1-9-10h-1l-2-4v-2h-1v-1l-1-1v-2l-1-1v-1l-1-1v-2l-1-2v-2l-1-2v-3l-1-3a220 220 0 0 1 2-36l1-2v-1l1-2v-1l1-2v-2l2-2v-1l-2 1v1l-3 3-1 2-1 1h-1v-1h-1l-1 1v1h-1l-2 1-5 5v1a111 111 0 0 1-12 11c-3 4-4 4-4 2l-1-1v-1l-1-1v-2h-1v-2l-3-3v-1l-1-1h-1l-2-3h-1v-1h-1l-1-1h-1l-1-1h-2l-1-1a34 34 0 0 0-16 1h-2a96 96 0 0 1-4 3l-5 5v1l-1 1v1l-1 1v1l-1 1v11l1 3v1-3l1-3v-1l1-2 1-1 1-2v-1l2-1 1-1c-1 0-1 0 0 0l3-3h2l1-1h3l1-1h5l2 1h2l1 1h2l3 3h1l1 1v2h1l1 1v1h1c1 0 0 0 0 0l1 1v1l1 1v2l1 2 1 1v1h1l2 1c1 0 0 0 0 0l1 1h1l2-2 4-1 2-2 2-1v-1l3-2v-1s1 0 0 0h1v-1h1l4-4 2-1v6l-1 2v1h1-1v5s0 1 0 0v13h1v1l1 1h1l3 3 2 4v1l-2 2v1l-1 1v1h-1v2h-1l-2 3-2 2a91 91 0 0 1-17 14l-1 1h-1l-1 1h-1l-1 1h-1l-1 1h-1l-2 1h-1l-2 1h-4a91 91 0 0 1-25 0l-1-1h-2l-2-1h-1l-1-1h-2l-1-1h-1l-1-1h-1v-1h-2l-2-2h-1l-1-1-2-1a43 43 0 0 1-7-7l-1-1-2-3-2-2v-1l-2-3-1-1v-2h-1v-1l-1-2v-1l-1-1v-1l-1-2v-1l-1-2v-2l-1-3v-3a78 78 0 0 1 1-22v-2l1-2v-2l1-2v-2l1-1v-1l1-2v-3h1l1-2v-2l2-2h-1m329 1 1 1v-1h-1m1 2-1 4 1 4v-8m-120 3-1 1h-1v1h-1v1l-3 3v1l-4 3-2 2-2 3-2 2a130 130 0 0 0 12 0l1-1v-1h1l1-1v-2h1l2-1v-1l1-1v-6c0-2-3-5-3-3m-51 3-3 1h-3l-2 1h-1l-1 1h-1l-1 1h-1l-1 1h-1v1h-1v1l-3 3c-1 0 0 0 0 0v1l-1 1v1l-1 1v1l-1 2v13l1-4v-1l1-2 1-3 7-7h1l2-1h1l1-1h12l10 2h5l5 1 1-1-1-1v-1l-2-2a25 25 0 0 0-5-5h-1l-1-1h-1l-1-1h-2l-1-1h-3l-3-1h-5m170 4 1 1v-2l-1 1m0 2 1 1v-1h-1m0 3 1 2v-4l-1 2m0 8 1 6v-12l-1 6m-176 2-1 1h-1v1h-1v1l-1 1v4l-1 2v2c1-1 1 0 1 1l-1 4v2l1 1-1 1c-1 0 0 0 0 0v1h1-1v3h1-1v1h1-1v1s0 1 0 0l1 1h-1c-1 0 0 0 0 0l1 1h1v1h1l2 1h1a40 40 0 0 0 17 0l4-2h1l1-1 2-1c1-1 1-1-11-1h-11v-4a173 173 0 0 0-1-21v-1h-3m61 5v1h1l-1-1m0 9v7l1 1v1l1-1-1-2v-4l1-1-1-1v-1l1-2-1-2v-1c-1-2-1-1-1 6m45 1s0 1 0 0h1l-1-1v1m-188 3v1l-2 1-1 2v1l-2 2h1l3-3v-1h1v-1h1v-2c1 0 1 0 0 0h-1m144 6v2l1-1-1-1m-150 2h1-1m150 1v2l1-1-1-1m0 4v1l1-1h-1m0 6v1l1-1h-1m0 6v1h1l-1-1m0 3v1l1-1h-1m0 4c0 2 0 2 1 1v-1h-1m0 2 1 4v-2l-1-2m0 6v2l1-1-1-1" fill="#e3e3e3"/></g></svg>