<svg data-name="Layer 1" xmlns="http://www.w3.org/2000/svg" xmlns:xlink="http://www.w3.org/1999/xlink" viewBox="0 0 800 220"><defs><linearGradient id="a" x1="402.4" y1="608" x2="416.3" y2="611.3" gradientTransform="matrix(55.73 0 0 -61.13 -22399 37390)" gradientUnits="userSpaceOnUse"><stop offset="0" stop-color="#31bac6"/><stop offset="1" stop-color="#b6509e"/></linearGradient><linearGradient id="b" x1="398.5" y1="607" x2="416.8" y2="610.3" gradientTransform="matrix(42.21 0 0 -60.24 -16781 36852)" xlink:href="#a"/><linearGradient id="c" x1="403.2" y1="608.4" x2="417.1" y2="611.6" gradientTransform="matrix(55.78 0 0 -61.13 -22470 37393)" xlink:href="#a"/><linearGradient id="d" x1="404.1" y1="609.3" x2="418" y2="612.5" gradientTransform="matrix(55.78 0 0 -61.13 -22536 37391)" xlink:href="#a"/></defs><g data-name="Group 4051"><path data-name="Path 2431" d="M490 203 415 22a16 16 0 0 1-1-5 14 14 0 0 1 4-10 13 13 0 0 1 10-4 13 13 0 0 1 8 2 16 16 0 0 1 5 7l71 178 71-178a16 16 0 0 1 6-7 13 13 0 0 1 7-2 13 13 0 0 1 10 4 14 14 0 0 1 4 10 16 16 0 0 1-1 5l-75 181c-4 10-10 14-19 14h-6c-8 0-15-4-19-14Z" style="fill:url(#a)"/><path data-name="Path 2432" d="M642 212a13 13 0 0 1-4-10V18a14 14 0 0 1 4-10 13 13 0 0 1 9-4h122a12 12 0 0 1 9 4 12 12 0 0 1 4 9 12 12 0 0 1-4 9 13 13 0 0 1-9 4H665v67h97a12 12 0 0 1 9 4 13 13 0 0 1 4 9 12 12 0 0 1-4 9 13 13 0 0 1-9 4h-97v67h108a12 12 0 0 1 9 4 12 12 0 0 1 4 9 12 12 0 0 1-4 9 13 13 0 0 1-9 4H651a12 12 0 0 1-9-4Z" style="fill:url(#b)"/><path data-name="Path 2433" d="M432 198 358 17c-5-10-11-14-19-14h-7c-8 0-14 4-19 14l-32 79h-25a13 13 0 0 0-13 13 13 13 0 0 0 13 14h14l-31 75a16 16 0 0 0-1 5 14 14 0 0 0 3 10 13 13 0 0 0 10 4 13 13 0 0 0 8-2 16 16 0 0 0 5-7l34-85h24a13 13 0 0 0 13-14 13 13 0 0 0-13-13h-13l26-66 72 178a16 16 0 0 0 5 7 13 13 0 0 0 8 2 13 13 0 0 0 9-4 14 14 0 0 0 4-10 12 12 0 0 0-1-5Z" style="fill:url(#c)"/><path data-name="Path 2434" d="M209 198 134 17c-4-10-10-14-19-14h-6c-8 0-15 4-19 14L58 96H33a14 14 0 0 0-13 13 14 14 0 0 0 13 14h13l-31 75a16 16 0 0 0-1 5 14 14 0 0 0 4 10 13 13 0 0 0 10 4 13 13 0 0 0 8-2 16 16 0 0 0 5-7l34-85h24a13 13 0 0 0 13-14 13 13 0 0 0-13-13H86l26-66 71 178a16 16 0 0 0 6 7 13 13 0 0 0 7 2 13 13 0 0 0 10-4 14 14 0 0 0 4-10 12 12 0 0 0-1-5Z" style="fill:url(#d)"/></g></svg>