<svg width="299.47" height="173.62" enable-background="new" viewBox="0 0 79.235 45.937" xmlns="http://www.w3.org/2000/svg" xmlns:xlink="http://www.w3.org/1999/xlink"><defs><filter id="h" color-interpolation-filters="sRGB"><feFlood flood-opacity=".498" result="flood"/><feComposite in="flood" in2="SourceGraphic" operator="in" result="composite1"/><feGaussianBlur in="composite1" result="blur" stdDeviation="3"/><feOffset dx="-22.5" dy="14.4" result="offset"/><feComposite in="SourceGraphic" in2="offset" result="composite2"/></filter><filter id="b" x="-.049" y="-.049" width="1.099" height="1.098" color-interpolation-filters="sRGB"><feGaussianBlur stdDeviation=".209"/><feBlend in2="BackgroundImage" mode="overlay"/></filter><filter id="d" x="-.027" y="-.026" width="1.054" height="1.051" color-interpolation-filters="sRGB"><feGaussianBlur stdDeviation=".251"/></filter><filter id="f" x="-.058" y="-.059" width="1.117" height="1.118" color-interpolation-filters="sRGB"><feGaussianBlur stdDeviation=".164"/></filter><filter id="k" x="-.058" y="-.059" width="1.117" height="1.118" color-interpolation-filters="sRGB"><feGaussianBlur stdDeviation=".164"/></filter><filter id="c" x="-.094" y="-.092" width="1.188" height="1.183" color-interpolation-filters="sRGB"><feGaussianBlur stdDeviation=".894"/></filter><filter id="e" x="-.103" y="-.092" width="1.206" height="1.183" color-interpolation-filters="sRGB"><feGaussianBlur stdDeviation=".894"/></filter><filter id="g" x="-.08" y="-.081" width="1.161" height="1.161" color-interpolation-filters="sRGB"><feGaussianBlur stdDeviation=".446"/></filter><linearGradient id="a"><stop stop-color="#6510bb" offset="0"/><stop stop-color="#6510bb" offset=".3"/><stop stop-color="#d29f72" offset=".8"/><stop stop-color="#fff5b2" offset="1"/></linearGradient><linearGradient id="i" x1="11.499" x2="11.69" y1="1.927" y2="12.885" gradientTransform="translate(.07 -.094)" gradientUnits="userSpaceOnUse" xlink:href="#a"/><linearGradient id="j" x1="16.394" x2="16.413" y1="13.427" y2="36.613" gradientTransform="translate(.207 -.027)" gradientUnits="userSpaceOnUse" xlink:href="#a"/><linearGradient id="n" x1="74.91" x2="74.981" y1="29.948" y2="45.386" gradientTransform="translate(-.044 .02)" gradientUnits="userSpaceOnUse" xlink:href="#a"/><linearGradient id="l" x1="38.627" x2="38.88" y1="13.3" y2="36.486" gradientTransform="translate(.18 .167)" gradientUnits="userSpaceOnUse" xlink:href="#a"/><linearGradient id="m" x1="62.541" x2="63.276" y1="13.627" y2="36.813" gradientTransform="translate(-.154 .1)" gradientUnits="userSpaceOnUse" xlink:href="#a"/></defs><g transform="translate(-2.854 -1.39)"><path d="m6.095 3.525 5.48 3.166 1.394-2.386 2.623 7.795-8.032 1.654 1.299-2.433-3.473-1.96z" fill="#b1acac" filter="url(#b)"/><path d="M48.47 21.253c-1.437-4.01-8.638-6.437-14.15-5.045-5.513 1.391-9.442 7.855-8.034 13.998 1.85 8.075 6.463 9.484 11.307 8.925 4.845-.558 5.564-3.379 6.266-5.717l-.577 5.676 5.474.158.08-13.017-11.392-.702.073 5.407 5.406.206c-3.073 3.474-8.039 3.558-9.889-1.337-2.858-7.56 7.45-11.893 10.424-4.476z" fill="#b0aaaa" filter="url(#c)"/><path d="M25.705 21.318c-1.436-4.01-7.968-6.972-13.481-5.58s-9.91 7.455-8.501 13.598c1.85 8.075 8 9.951 12.844 9.393 4.845-.559 8.37-3.38 9.072-5.718l-4.811-4.276c-2.472 5.88-8.443 5.27-10.357.4-2.682-6.826 7.216-11.76 10.223-3.474z" fill="#b0aaaa" filter="url(#d)"/><path d="M51.694 15.864s-.527 15.118.837 17.846c2.394 4.786 5.011 5.397 9.067 5.496 4.215.103 8.887-.9 10.534-7.254.493-1.903.284-16.16.284-16.16l-6.134.118s.048 8.656-.082 12.927c-.13 4.29-2.424 4.43-4.18 4.389-1.775-.042-4.112-.664-4.186-5.083-.074-4.392-.096-12.282-.096-12.282z" fill="#b0aaaa" filter="url(#e)"/><ellipse cx="36.829" cy="6.029" rx="3.368" ry="3.321" fill="#b0aaaa" filter="url(#f)"/><path d="m74.309 32.955-2.363 4.89-4.275 1.724 4.181 1.677 2.528 5.009 2.504-4.985 4.134-1.677-4.158-1.796z" fill="#b0aaaa" filter="url(#g)"/><path d="m6.142 3.289 5.48 3.165 1.395-2.386 2.622 7.796-8.032 1.654 1.3-2.433-3.474-1.961z" fill="#fff" filter="url(#h)"/><path d="m6.874 2.746 5.481 3.165 1.394-2.386 2.622 7.796-8.032 1.654 1.3-2.434-3.473-1.96z" fill="url(#i)"/><path d="M26.149 20.346c-1.437-4.009-7.97-6.972-13.482-5.58-5.513 1.392-9.91 7.455-8.501 13.598 1.85 8.075 8 9.951 12.844 9.393 4.845-.559 8.37-3.38 9.072-5.718l-4.811-4.276c-2.472 5.88-8.443 5.271-10.357.4-2.682-6.825 7.217-11.76 10.223-3.474z" fill="#fff"/><path d="M26.621 19.307c-1.436-4.01-7.969-6.972-13.481-5.58-5.513 1.392-9.91 7.455-8.502 13.598 1.851 8.075 8 9.95 12.845 9.392 4.844-.558 8.37-3.379 9.071-5.717l-4.81-4.277c-2.473 5.88-8.444 5.272-10.357.401-2.683-6.826 7.216-11.76 10.223-3.474z" fill="url(#j)"/><ellipse cx="37.231" cy="5.391" rx="3.368" ry="3.321" fill="#fff"/><ellipse cx="37.514" cy="4.777" rx="3.368" ry="3.321" fill="#8020eb"/><ellipse cx="38.837" cy="3.501" rx="1.169" ry="1.192" fill="#fff"/><ellipse cx="44.503" cy="5.962" rx="3.368" ry="3.321" fill="#b0aaaa" filter="url(#k)"/><ellipse cx="44.904" cy="5.325" rx="3.368" ry="3.321" fill="#fff"/><ellipse cx="45.188" cy="4.71" rx="3.368" ry="3.321" fill="#8020eb"/><ellipse cx="46.511" cy="3.435" rx="1.169" ry="1.192" fill="#fff"/><path d="M48.803 19.983c-1.436-4.009-8.637-6.437-14.15-5.045-5.512 1.392-9.441 7.856-8.033 13.999 1.85 8.075 6.463 9.483 11.307 8.925 4.845-.559 5.564-3.38 6.266-5.718l-.577 5.677 5.474.158.08-13.018-11.392-.701.073 5.406 5.406.206c-3.073 3.475-8.038 3.559-9.889-1.336-2.858-7.561 7.45-11.894 10.424-4.477zm2.906-5.351s-.527 15.117.837 17.845c2.394 4.786 5.012 5.397 9.067 5.497 4.215.103 8.887-.9 10.534-7.255.493-1.903.284-16.159.284-16.159l-6.134.118s.049 8.655-.082 12.927c-.13 4.289-2.424 4.43-4.18 4.388-1.774-.042-4.112-.663-4.186-5.083-.074-4.391-.095-12.282-.095-12.282zM74.401 32.697l-2.362 4.89-4.276 1.725 4.182 1.677 2.527 5.008 2.504-4.985 4.134-1.677-4.157-1.795z" fill="#fff"/><path d="M49.184 18.814c-1.437-4.01-8.637-6.437-14.15-5.045C29.52 15.16 25.592 21.625 27 27.767c1.851 8.075 6.463 9.484 11.308 8.925 4.845-.558 5.564-3.379 6.265-5.717l-.576 5.676 5.473.158.081-13.017-11.392-.702.072 5.407 5.407.206c-3.074 3.474-8.04 3.558-9.89-1.337-2.857-7.56 7.45-11.893 10.424-4.476z" fill="url(#l)"/><path d="M52.14 13.692s-.526 15.118.838 17.846c2.394 4.786 5.011 5.397 9.067 5.497 4.215.103 8.887-.9 10.534-7.255.493-1.903.284-16.159.284-16.159l-6.134.118s.049 8.655-.082 12.926c-.13 4.29-2.424 4.43-4.18 4.389-1.774-.042-4.112-.663-4.186-5.083-.074-4.391-.096-12.282-.096-12.282z" fill="url(#m)"/><path d="m74.867 32.106-2.363 4.89-4.276 1.724 4.182 1.678 2.527 5.008 2.505-4.985 4.134-1.677-4.158-1.795z" fill="url(#n)"/></g></svg>