<?xml version="1.0" standalone="no"?>
<!DOCTYPE svg PUBLIC "-//W3C//DTD SVG 20010904//EN"
 "http://www.w3.org/TR/2001/REC-SVG-20010904/DTD/svg10.dtd">
<svg version="1.0" xmlns="http://www.w3.org/2000/svg"
 width="960.000000pt" height="960.000000pt" viewBox="0 0 960.000000 960.000000"
 preserveAspectRatio="xMidYMid meet">
<metadata>
Created by potrace 1.14, written by Peter Selinger 2001-2017
</metadata>
<g transform="translate(0.000000,960.000000) scale(0.100000,-0.100000)"
fill="#000000" stroke="none">
<path d="M5120 7520 l0 -160 -160 0 -160 0 0 -160 0 -160 -160 0 -160 0 0
-160 0 -160 -160 0 -160 0 0 -160 0 -160 -160 0 -160 0 0 -160 0 -160 -160 0
-160 0 0 -160 0 -160 -160 0 -160 0 0 -160 0 -160 -160 0 -160 0 0 -160 0
-160 -160 0 -160 0 0 -160 0 -160 -160 0 -160 0 0 -160 0 -160 -160 0 -160 0
0 -160 0 -160 -160 0 -160 0 0 -320 0 -320 -160 0 -160 0 -640 -480 -640 -480
0 -320 0 -320 4800 0 4800 0 0 800 0 800 -160 0 -160 0 0 320 0 320 -160 0
-160 0 0 160 0 160 -160 0 -160 0 0 160 0 160 -160 0 -160 0 0 160 0 160 -160
0 -160 0 0 160 0 160 -160 0 -160 0 0 160 0 160 -160 0 -160 0 0 480 0 480
320 0 320 0 0 320 0 320 -1120 0 -1120 0 0 160 0 160 -320 0 -320 0 0 -160z
m640 -635 l0 -155 -153 0 c-106 0 -157 -4 -165 -12 -9 -9 -12 -94 -12 -320 l0
-308 -314 0 c-277 0 -315 -2 -320 -16 -3 -9 -6 -299 -6 -645 l0 -629 965 0
965 0 0 313 c0 173 2 316 4 318 2 2 146 3 320 1 l316 -3 0 -154 0 -155 160 0
160 0 0 -160 0 -160 160 0 160 0 0 -160 0 -160 160 0 160 0 0 -160 0 -159 158
-3 157 -3 3 -157 3 -158 -3201 0 -3200 0 0 160 0 160 160 0 160 0 0 160 0 160
160 0 160 0 0 160 0 160 160 0 160 0 0 160 0 160 160 0 160 0 0 160 0 160 160
0 160 0 0 160 0 160 160 0 159 0 3 158 3 157 157 3 157 3 3 157 3 157 157 3
157 3 3 157 3 157 158 3 157 3 0 153 c0 84 3 156 7 159 3 4 147 7 320 7 l313
0 0 -155z m3198 -4007 l2 -318 -4312 0 c-2371 0 -4308 3 -4305 7 4 3 217 147
474 319 l468 313 3835 -2 3835 -2 3 -317z"/>
</g>
</svg>
