<svg width="30" height="18" viewBox="2 -1 30 18" xmlns="http://www.w3.org/2000/svg"><style>@media (prefers-color-scheme:dark){.hat{fill:#198db5}.fth{fill:#b634c3}}</style><path d="M7 12v-2h1V9h1V8h1V7h1V6h1V5h1V4h1V3h1V2h1V1h1V0h1v-1h2v1h7v2h-2v3h1v1h1v1h1v1h1v1h1v1h1v2h1v5H2v-2l4-3z" fill="#321227"/><path d="M28 12H8v-2h1V9h1V8h1V7h1V6h1V5h1V4h1V3h1V2h1V1h1V0h2v1h1v1h1v1h1v1h1v1h1v1h1v1h1v1h1v1h1v1h1v2zm3 1v3H3v-1l3-2z" fill="#087ca5"/><path d="M9 11v-1h1V9h1V8h1V7h1V6h1V5h1V4h1V3h1V2h1V1h2v1h1v1h1v1h1v1h1v1h1v1h1v1h1v1h1v1h1v1zm21 2v2H3l3-2z" fill="#00beff" class="hat"/><path d="M21 0v2h-2v2h-2v4h6V6h2V2h2V0z" fill="#700774"/><path d="M21 2v2h-2v2h4V2z" fill="#e900ff" class="fth"/></svg>