<svg xmlns="http://www.w3.org/2000/svg" fill="none" viewBox="0 0 256 256"><path fill="#A726C1" d="m186.38 171.56 57.12-32.97c3.02-1.75 4.9-5 4.9-8.5V64.15a9.84 9.84 0 0 0-4.9-8.49l-57.12-32.97a9.84 9.84 0 0 0-9.8 0l-57.11 32.97a9.83 9.83 0 0 0-4.9 8.5V182l-40.05 23.12L34.47 182v-46.25l40.05-23.11 26.42 15.24V96.86L79.42 84.44a9.83 9.83 0 0 0-9.8 0L12.5 117.42a9.83 9.83 0 0 0-4.9 8.49v65.95a9.84 9.84 0 0 0 4.9 8.49l57.12 32.97a9.85 9.85 0 0 0 9.8 0l57.11-32.97c3.02-1.75 4.9-5 4.9-8.49V74l.72-.41 39.33-22.7L221.53 74v46.24l-40.05 23.13-26.38-15.23v31.02l21.48 12.4a9.85 9.85 0 0 0 9.8 0Z"/></svg>