<svg width="20" height="20" viewBox="0 0 21 19" fill="none" xmlns="http://www.w3.org/2000/svg"><path d="M6.81 12.458c-.423-2.243.407-3.791 2.453-4.656.113-.047.218-.213.244-.34.04-.199-.004-.413.014-.619.065-.75-.01-1.315-.807-1.801-1.1-.672-1.369-2.123-.87-3.287.493-1.15 1.71-1.871 2.938-1.74a2.913 2.913 0 0 1 2.536 2.337c.234 1.204-.382 2.47-1.521 3.037-.276.138-.354.288-.341.571.02.488-.009.978.015 1.465.007.128.102.316.208.365 2.144.986 2.897 2.374 2.494 4.67.692.407 1.388.832 2.102 1.222.115.063.336.012.471-.057 1.925-.995 4.186.306 4.253 2.456.045 1.448-1.092 2.718-2.598 2.9-1.375.168-2.797-.844-3.071-2.216-.068-.341-.06-.705-.031-1.053.02-.235-.003-.381-.227-.506-.557-.31-1.093-.658-1.655-.96a.502.502 0 0 0-.444.04c-1.565 1.217-3.408 1.218-4.963.004-.102-.08-.332-.106-.443-.046-.562.301-1.098.649-1.655.96-.22.123-.266.26-.223.502.225 1.274-.487 2.537-1.7 3.051a2.866 2.866 0 0 1-3.425-.93 2.829 2.829 0 0 1 .113-3.53c.832-.996 2.27-1.314 3.433-.711.34.177.573.153.879-.045.596-.386 1.219-.729 1.82-1.083Zm3.695.812a1.856 1.856 0 0 0 1.87-1.901 1.885 1.885 0 0 0-3.77.031 1.856 1.856 0 0 0 1.9 1.87Zm.912-10.42c-.01-.53-.414-.916-.948-.906a.905.905 0 0 0-.908.947c.01.514.442.933.95.92a.935.935 0 0 0 .906-.961ZM2.85 17.06c.524.01.937-.38.95-.897a.945.945 0 0 0-.935-.97.968.968 0 0 0-.942.931c-.006.5.417.927.927.936Zm15.278 0c.509-.008.933-.434.928-.934a.968.968 0 0 0-.94-.933.945.945 0 0 0-.937.968.915.915 0 0 0 .949.9Z" fill="currentColor"/></svg>