<svg xmlns="http://www.w3.org/2000/svg" id="e36aa498-aa79-4cbb-831e-eaea56ca7fc4" data-name="Layer 1" viewBox="0 0 602 432" version="1.1" width="602" height="431.7"><defs id="defs912"><style id="style910">.a8140f2a-9731-469f-be98-1273cd2ac50c{fill:#333333}</style></defs><path class="a8140f2a-9731-469f-be98-1273cd2ac50c" d="M545 388c-10 4-21-4-22-2s4 9 12 15c5 4 17 11 40 10a19 19 0 0 0 16-13l11-30a384 384 0 0 1-87-113 382 382 0 0 1-31-87l9-16 29 28a11 11 0 0 0 16-1c10 4 21 2 28-4 11-10 11-30-4-42l-3-37 20-6a33 33 0 0 0 0-20 32 32 0 0 0-7-11c-6-11-18-32-42-44a99 99 0 0 0-14-6 151 151 0 0 0-57-8l13 9a455 455 0 0 0-87-10l7 7a297 297 0 0 0-50 3c-21 3-73 13-151 65-75 52-121 83-118 123 3 27 28 73 63 90 5 3 12 6 17 14 9 13 3 30-6 64l-11 36a20 20 0 0 0 18 26q96 8 98-3 2-8-45-25a80 80 0 0 1 0-25c5-32 29-42 35-68 6-22-2-43-9-58a203 203 0 0 0 97-32c-7 35 0 57 7 70 16 28 49 47 48 71v22c1 11 3 15 1 20-2 4-8 9-25 10q-6 5-4 9 3 12 69 5l16-35a309 309 0 0 0-2-58c-6-42-17-58-8-84 4-10 7-12 21-32l24-35-11 25a491 491 0 0 1-22 44 163 163 0 0 0 12 39c27 57 80 82 100 90-2 3-5 8-11 10zM474 65c5-4 14-1 16 0 11 3 17 17 14 20-2 3-10-2-12 1-3 4 8 14 5 18-2 3-13 1-20-6-9-9-11-26-3-33z" id="path932" style="fill:#333333"/><path class="a8140f2a-9731-469f-be98-1273cd2ac50c" d="M135 300a153 153 0 0 1-62-59l-15 22c-13 18-15 37-16 41-2 10-10 24-36 42-6 4-6 13-6 22 0 31 35 59 49 53 2-1 4-3 6-7 16 6 32 9 35 4 4-7-24-21-26-42-2-28 34-55 71-76z" id="path934" style="fill:#333333"/></svg>