<svg viewBox="0 0 1000 1000" xmlns="http://www.w3.org/2000/svg"><path d="M0 0v1000h1000V0z"/><path d="M905 95V48H95v47H48v810h47v48h810v-48h48V95z" fill="#38404f"/><path d="M905 143V95h-48V48H143v47H95v48H48v714h47v48h48v48h714v-48h48v-48h48V143zM191 857h-48v-47h48zm0-666h-48v-48h48zm666 666h-47v-47h47zm0-666h-47v-48h47z" fill="#6c727d"/><g><path d="M857 429v-48h-47v-95h-48v-48h-48v-48h-95v-47h-47V95H429v48h-48v47h-95v48h-48v48h-47v95h-48v48H95v142h48v48h48v95h47v48h48v48h95v47h48v48h143v-48h47v-47h95v-48h48v-48h48v-95h47v-48h48V429z"/><g fill="#d200d2"><path d="M619 333h48v48h-48zM333 333h48v48h-48zM619 619h48v48h-48zM333 619h48v48h-48z"/></g><g fill="#f0f"><path d="M381 286v47h238v-47zM381 667v47h238v-47zM286 619h47V381h-47zM667 381v238h47V381z"/></g><g fill="#262632"><path d="M381 191v47h238v-48zM381 762v48h238v-48zM762 381v-95h-48v-48h-95v48h48v47h47v48h48v238h48V381zM714 667h-47v47h-48v48h95v-48h48v-95h-48zM381 714h-48v-47h-47v-48h-48V381h48v-48h47v-47h48v-48h-95v48h-48v95h-47v238h47v95h48v48h95z"/></g><path d="M552 432v-35H449v34l-35 1v171h35v-34h34v34h34v-34h35v34h34V432z" fill="#f0f"/><g fill="#38404f"><path d="M333 238h48v48h-48zM286 333h-48v48h48v-48h47v-47h-47zM429 191v47h143v-48zM429 762v48h143v-48zM667 333h47v-47h-47v-48h-48v48h48zM714 333h48v48h-48zM762 429v142h48V429zM714 667h-47v47h47v-47h48v-48h-48zM619 714h48v48h-48zM286 667v-48h-48v48h48v47h47v-47zM333 714h48v48h-48zM238 429h-47v142h47z"/></g></g></svg>