<svg xmlns="http://www.w3.org/2000/svg" viewBox="0 0 810 810"><path d="M762 334v-48h-47v-95h-48v-48h-48V95h-95V48h-47V0H334v48h-48v47h-95v48h-48v48H96v95H48v48H0v142h48v48h48v95h47v48h48v48h95v47h48v48h143v-48h47v-47h95v-48h48v-48h48v-95h47v-48h48V334Z"/><path d="M524 238h48v48h-48zm-286 0h48v48h-48zm286 286h48v48h-48zm-286 0h48v48h-48z" style="fill:#d200d2"/><path d="M286 191v47h238v-47zm0 381v47h238v-47zm-95-48h47V286h-47Zm381-238v238h47V286Z" style="fill:#f0f"/><path d="M286 96v47h238V95Zm0 571v48h238v-48Zm381-381v-95h-48v-48h-95v48h48v47h47v48h48v238h48V286Zm-48 286h-47v47h-48v48h95v-48h48v-95h-48Zm-333 47h-48v-47h-47v-48h-48V286h48v-48h47v-47h48v-48h-95v48h-48v95H96v238h47v95h48v48h95z" style="fill:#262632"/><path d="M457 337v-35H354v34l-35 1v171h35v-34h34v34h34v-34h35v34h34V337Z" style="fill:#f0f"/><path d="M238 143h48v48h-48zm-47 95h-48v48h48v-48h47v-47h-47ZM334 96v47h143V95Zm0 571v48h143v-48Zm238-429h47v-47h-47v-48h-48v48h48zm47 0h48v48h-48zm48 96v142h48V334Zm-48 238h-47v47h47v-47h48v-48h-48zm-95 47h48v48h-48Zm-333-47v-48h-48v48h48v47h47v-47zm47 47h48v48h-48Zm-95-285H96v142h47z" style="fill:#38404f"/></svg>